PathFileType	4	(X/Y/Z)	pose_F01_0-96.trc
DataRate	CameraRate	NumFrames	NumMarkers	Units	OrigDataRate	OrigDataStartFrame	OrigNumFrames
30	30	9	21	m	30	60	96
Frame#	Time	CHip			RHip			RKnee			RAnkle			RBigToe			RSmallToe			RHeel			LHip			LKnee			LAnkle			LBigToe			LSmallToe			LHeel			Neck			Nose			RShoulder			RElbow			RWrist			LShoulder			LElbow			LWrist			
		X1	Y1	Z1	X2	Y2	Z2	X3	Y3	Z3	X4	Y4	Z4	X5	Y5	Z5	X6	Y6	Z6	X7	Y7	Z7	X8	Y8	Z8	X9	Y9	Z9	X10	Y10	Z10	X11	Y11	Z11	X12	Y12	Z12	X13	Y13	Z13	X14	Y14	Z14	X15	Y15	Z15	X16	Y16	Z16	X17	Y17	Z17	X18	Y18	Z18	X19	Y19	Z19	X20	Y20	Z20	X21	Y21	Z21	
60	2.0	-0.10850052233900685	1.8832657645256334	-0.45529070756310003	-0.114080230505036	1.8775888885310552	-0.39822073062863195	-0.12700892149394813	1.741561851345481	-0.32735583963618303	-0.13135981383018244	1.615128714110748	-0.3517621645055419							-0.12312533516857899	1.621005938097828	-0.315362999972652	-0.10183105057453598	1.887585037905247	-0.5207530052369453	-0.10441278980502955	1.7453853857678283	-0.5012647333697506	-0.08874240922726928	1.6085307998890315	-0.49520957764450463	-0.12166493014530053	1.5798888962192241	-0.4995014781739024	-0.1105502141988963	1.5824056454008244	-0.5249956781116246	-0.07349842047202727	1.5977434514750595	-0.48414009209308057	-0.10711431035308928	2.0287517992025603	-0.43892755686580676	-0.12681998470955133	2.06442099342378	-0.38412742526707794	-0.11143004997882483	2.021262832090213	-0.36163561788819754	-0.14586037283271852	1.979713570825964	-0.3117728262703772	-0.13094358390031163	2.0282983751609382	-0.3107091900315622	-0.1020940239408716	2.040911448606071	-0.5196453427242962	-0.11804513691769697	1.9983263894401266	-0.568000291122026	-0.17473941121937664	1.9892283566660829	-0.5266134154567033
61	2.033333333333333	-0.10577169936114815	1.8781736700405605	-0.4532080137462957	-0.11206386799078921	1.8737938207909335	-0.39936973722751157	-0.12592691182850152	1.7417000739342399	-0.32374090529953364	-0.13135981383018244	1.615128714110748	-0.3517621645055419							-0.12312533516857899	1.621005938097828	-0.315362999972652	-0.1019960878007981	1.8839067401723408	-0.5201376129222096	-0.10405459323064663	1.7447660769643567	-0.501414655470607	-0.08791035627121936	1.60869367043967	-0.4919067496003793	-0.1238812038786661	1.5782904860733178	-0.49657024869638833	-0.11257419731072643	1.582223467257688	-0.5226135195279841	-0.0745685098761394	1.600250396570612	-0.478806104661528	-0.09844928808831897	2.025554203638306	-0.44426266823534544	-0.1250821097808436	2.0612659817451946	-0.3775847985239509	-0.09844447201146653	2.010119289928176	-0.36639194823856114	-0.14731702147455134	1.9735055665889951	-0.31512447502718666	-0.1405998400014563	2.0207080814473635	-0.31842525255979853	-0.09933735592349752	2.0360742740895725	-0.5175768566395076	-0.11179663388773983	1.9813377734516102	-0.5912574333541236	-0.1524474487029722	1.9735953269532613	-0.5108379270506392
62	2.066666666666667	-0.1084882207354955	1.8777260798467394	-0.4449072830199113	-0.11205908482840561	1.872367158867364	-0.3900135477433033	-0.12328799861417317	1.7437964574404963	-0.3225513220210465	-0.13135981383018244	1.615128714110748	-0.3517621645055419							-0.12312533516857899	1.621005938097828	-0.315362999972652	-0.10245065127641345	1.8847691549816366	-0.5021939704500193	-0.10744211138585813	1.746937131198255	-0.4933363635419106	-0.08774675724095109	1.6102993066092282	-0.4923212368320233	-0.12270855922033796	1.5794356518366686	-0.4938612261599185	-0.11081311470171118	1.5824482350759546	-0.5158792535970518	-0.07453868645196858	1.6001101941448135	-0.4787894714156127	-0.10178915482123731	2.0209796631699155	-0.4276174682700239	-0.1237828313249799	2.0616254016716526	-0.3565377243722974	-0.10148092073329083	2.0043485985049885	-0.348752896231005	-0.14877367011638418	1.9672975623520261	-0.31847612378399615	-0.15025609610260096	2.013117787733789	-0.32614131508803484	-0.0988216560918899	2.033070648040549	-0.5052079837523853	-0.10389365011398671	1.9741660194162003	-0.5698182545358289	-0.134353350571082	1.9488736204288184	-0.49728196519937673
63	2.1	-0.10587506735000828	1.8734543395096983	-0.4247317433315821	-0.10834826896981357	1.8687073011611415	-0.3665621957534096	-0.12003092276635512	1.745178224503202	-0.3123676310949227	-0.13135981383018244	1.615128714110748	-0.3517621645055419							-0.12312533516857899	1.621005938097828	-0.315362999972652	-0.10300841518426725	1.8789405878790686	-0.48323184677149383	-0.11076487906472265	1.7474713457281412	-0.4850670362637054	-0.08799360989155292	1.6090186454013882	-0.49177561918865714	-0.12279810530410169	1.5799516978338457	-0.4938999008364152	-0.11192849648561948	1.5838064056307675	-0.518993440565909	-0.07450490487616895	1.5999239793657034	-0.4787926103385526	-0.10114522038463097	2.018268161376315	-0.40594768334268233	-0.12209436720151362	2.059136980185173	-0.3411001529850432	-2.5569660835608885	1.935733320270479	2.7172062616070103	-0.14730386150193764	1.9601516826838046	-0.29518453903084	-0.15991235220374564	2.0055274940202144	-0.3338573776162711	-0.1024942715426519	2.028880097315958	-0.47917767217105006	-0.10154581359423613	1.970974451496557	-0.5394388908303086	-0.13239601009374083	1.928983752827672	-0.49578617699961125
64	2.1333333333333333	-0.1095306723731829	1.8729636394264422	-0.4077571303055946	-0.11520938496195027	1.8686074339470597	-0.3538580135012448	-0.11857139873655784	1.7420724651651898	-0.2994126792102623	-0.13135981383018244	1.615128714110748	-0.3517621645055419							-0.12312533516857899	1.621005938097828	-0.315362999972652	-0.10852825800821253	1.8775911769504612	-0.472562319869824	-0.1103473529063084	1.74637103136655	-0.4721501022904473	-0.08876044297349324	1.6085406390088868	-0.49511510930927555	-0.12376785723976051	1.5802040771783594	-0.497220137163808	-0.11273820528859146	1.5826532669981033	-0.5226282068177478	-0.07338692008924144	1.5975229531554265	-0.4841969042494473	-0.10315417197209306	2.0177861788174365	-0.39457832590977215	-0.12089928575688334	2.0610996635667	-0.32959571951087696	-2.5817715096116194	1.937441078555137	2.7754132913060388	-0.14583405288749113	1.953005803015583	-0.2718929542776839	-0.1695686083048903	1.9979372003066396	-0.3415734401445074	-0.10274906032913093	2.030455577142514	-0.4706729682430133	-0.10111546700515893	1.96849882790596	-0.5270575041709269	-0.13581996524189038	1.9138040337392603	-0.5034124466711591
65	2.1666666666666665	-0.11359059100520437	1.8687462763065306	-0.3931150464425605	-0.11521694530626428	1.8641876188154138	-0.32548176494813186	-0.1179849086783944	1.742238396849828	-0.29544396667560985	-0.13135981383018244	1.615128714110748	-0.3517621645055419							-0.12312533516857899	1.621005938097828	-0.315362999972652	-0.10818765024118011	1.8756155781725268	-0.4506063413583906	-0.10829162648607076	1.7445887987972397	-0.46518110290548603	-0.08948138738306957	1.6109499883098832	-0.4906255936645289	-0.12358157488673012	1.5793007971827258	-0.49710873949765794	-0.11148867220292653	1.5837589528128329	-0.5198035805606362	-0.07693633813224764	1.5991638710953568	-0.4805689274243059	-0.10138015381922104	2.0179534818349425	-0.37953052442383106	-0.12119460823877783	2.0658961507617164	-0.3326181902763579	-2.625513154116036	1.939450207504565	2.8668389718078653	-0.1373409271964993	1.9503565299811918	-0.24265703641499242	-0.17922486440603497	1.990346906593065	-0.3492895026727437	-0.10116066231947804	2.029622240675664	-0.4553334961021384	-0.09653215478515938	1.968322704194502	-0.5097264659091721	-0.12145314084989109	1.9114433573366052	-0.510061081610248
66	2.2	-0.11170780771192704	1.871140496942189	-0.38662411825137105	-0.11429169804298377	1.8665432992176019	-0.32238324995019657	-0.11955258416489649	1.739759588770929	-0.29296237925756896	-0.13135981383018244	1.615128714110748	-0.3517621645055419							-0.12312533516857899	1.621005938097828	-0.315362999972652	-0.10717507476109499	1.8770315986289756	-0.44737929504253404	-0.10520291517304918	1.7493362241704407	-0.4649456573928244	-0.08978059396030845	1.6100859196075483	-0.4898930573812384	-0.12273186499526122	1.5794739296549942	-0.4938036919195142	-0.1110540102493957	1.5837807052147452	-0.5155714959570785	-0.07833128049762669	1.598019818418887	-0.474320020153208	-0.10126237571970396	2.0167582905089767	-0.3699329396606105	-0.12213671669084403	2.0668155991148094	-0.3362752572386869	-2.644724639990497	1.9396988406449767	2.9107280723605933	-0.134341004617618	1.9409284507591544	-0.22330294996817063	-0.15405172040071377	1.9775520088549674	-0.24091646316060883	-0.09930864787391669	2.0288028322734664	-0.448758797918327	-0.09580798274246737	1.9658874169938998	-0.5064249078553662	-0.12324385497466694	1.903974005290666	-0.5037393984262768
67	2.2333333333333334	-0.11176350731665714	1.874664140580759	-0.3782539956699022	-0.11614529674145466	1.8678761994870021	-0.3202931805222404	-0.11776915634150864	1.742196478267275	-0.2860488237266861	-0.13135981383018244	1.615128714110748	-0.3517621645055419							-0.12312533516857899	1.621005938097828	-0.315362999972652	-0.10843659397164127	1.8796272615187826	-0.4423673579286691	-0.10425531660183439	1.748121290967513	-0.4614425355053535	-0.09050867268464008	1.6128914306306636	-0.4854543505929557	-0.12288521773707087	1.5806919795199315	-0.4934888185574266	-0.11075834861193834	1.5852285756108184	-0.5161459477519363	-0.08021946872956798	1.601892029295896	-0.47280682296411203	-0.10057047382902179	2.016359068317893	-0.3671636457179394	-0.12307882514291021	2.0677350474679024	-0.3399323242010159	-2.6688019670574987	1.942099449785636	2.9607468794869525	-0.13263855593586374	1.9445588705139205	-0.21081392334719068	-0.14898919779982614	1.9909336284860408	-0.22832200587902307	-0.0965087210351437	2.02891023649838	-0.44793166179882987	-0.09698694505477112	1.9630285639130167	-0.5000773843638702	-0.12347998461384871	1.8976555697198954	-0.5024016235121549
68	2.2666666666666666	-0.11184787896190533	1.8744857051888486	-0.36925009899566474	-0.11687979179021837	1.8688422631509505	-0.314697159659203	-0.11761942599803055	1.7433400557561893	-0.28618995836777955	-0.13135981383018244	1.615128714110748	-0.3517621645055419							-0.12312533516857899	1.621005938097828	-0.315362999972652	-0.11029147416491157	1.8806673679402044	-0.43996462285939186	-0.10603373018171296	1.749462221379879	-0.4594358127591443	-0.09157855517641611	1.612501753679487	-0.479645544816376	-0.1247712392055429	1.5794567572185374	-0.4914465791012683	-0.11081946476742782	1.5850804806278427	-0.5160855456930578	-0.0822000310579005	1.6017207414039298	-0.4704206239194909	-0.09953501765800071	2.015133437214999	-0.36313544456519686	-0.12310928746335432	2.0669975185343055	-0.33975797640105293	-2.7107107640115493	1.939391239380836	3.0423669067073553	-0.13322974208228053	1.941941823410688	-0.204798513966834	-0.15060575728342085	1.9935510184750456	-0.24550578867517922	-0.09452049674369814	2.0291323542799096	-0.4500512716722993	-0.0964818749778606	1.9640868644680927	-0.4882489038425148	-0.12266970572798805	1.899033166121708	-0.4994896596439255
